<?xml version="1.0" encoding="UTF-8"?>
<svg version="1.1" xmlns="http://www.w3.org/2000/svg" width="500" height="500">
<path d="M0 0 C-0.19335938 0.56847656 -0.38671875 1.13695313 -0.5859375 1.72265625 C-1.40267639 4.14457009 -2.20115379 6.57213407 -3 9 C-3.37125 10.093125 -3.7425 11.18625 -4.125 12.3125 C-7.33410672 25.83659259 -6.12051083 40.28566516 -5.5625 54.0625 C-5.52334473 55.0625708 -5.48418945 56.0626416 -5.44384766 57.09301758 C-5.40179199 58.04329834 -5.35973633 58.9935791 -5.31640625 59.97265625 C-5.27974854 60.82093994 -5.24309082 61.66922363 -5.20532227 62.54321289 C-5.05581011 64.99106445 -5.05581011 64.99106445 -4.49072266 67.30639648 C-3.83386529 70.91192249 -3.83750274 74.47311217 -3.83203125 78.125 C-3.82870285 78.90834717 -3.82537445 79.69169434 -3.82194519 80.4987793 C-3.8168937 82.15624406 -3.81453631 83.81371895 -3.81469727 85.47119141 C-3.81253124 87.96404631 -3.79441379 90.45644323 -3.77539062 92.94921875 C-3.73078142 105.24408275 -4.82108411 116.93463707 -8.1875 128.8125 C-8.39963135 129.5653125 -8.6117627 130.318125 -8.83032227 131.09375 C-13.15298935 145.80344577 -20.02923706 158.91148989 -29.25 171.125 C-29.68675049 171.70660889 -30.12350098 172.28821777 -30.57348633 172.88745117 C-31.66588681 174.29828247 -32.82770887 175.65481701 -34 177 C-34.66 177 -35.32 177 -36 177 C-36 177.66 -36 178.32 -36 179 C-37.56595989 180.46176104 -39.20607169 181.84449814 -40.875 183.1875 C-42.23238281 184.29158203 -42.23238281 184.29158203 -43.6171875 185.41796875 C-51.36383837 191.4138211 -59.19214593 196.44507409 -68.0625 200.625 C-69.55934326 201.33547485 -69.55934326 201.33547485 -71.08642578 202.06030273 C-79.53708239 205.97314478 -87.96713179 208.80416463 -97 211 C-97.88816406 211.24234375 -98.77632813 211.4846875 -99.69140625 211.734375 C-105.15216536 213.13992691 -110.38620074 213.17371255 -116 213 C-111.78703174 170.064897 -90.87343637 128.73263996 -67.43530273 93.22216797 C-65.90076372 90.84636016 -64.44303956 88.43226954 -63 86 C-63.66 86 -64.32 86 -65 86 C-65.2578125 86.58007812 -65.515625 87.16015625 -65.78125 87.7578125 C-67.10378606 90.19093974 -68.59500053 91.86850466 -70.5 93.875 C-79.81839939 104.18758667 -87.13340258 115.9681546 -94 128 C-94.35384766 128.60521484 -94.70769531 129.21042969 -95.07226562 129.83398438 C-107.30346107 150.87521823 -115.60462243 174.60337287 -122 198 C-122.27038086 198.9811377 -122.54076172 199.96227539 -122.81933594 200.97314453 C-125.99376247 212.57718782 -128.8184215 224.16730794 -131 236 C-131.34233488 237.77891874 -131.68619787 239.55754382 -132.03125 241.3359375 C-132.39610766 243.22390534 -132.76069206 245.11192601 -133.125 247 C-133.38144287 248.32765381 -133.38144287 248.32765381 -133.64306641 249.68212891 C-134.5512477 254.4439688 -135.36014587 259.19456487 -136 264 C-136.99 264 -137.98 264 -139 264 C-140.68420829 259.40605314 -141.59456154 254.88186434 -142.3125 250.0625 C-144.95023607 233.45273487 -148.76594094 217.1494048 -153.43554688 201.00097656 C-154.28923332 197.9746729 -155.04195667 194.92337755 -155.8125 191.875 C-164.48924171 159.47494465 -177.52987627 127.26371024 -196.453125 99.44921875 C-198 97 -198 97 -198 95 C-198.66 95 -199.32 95 -200 95 C-201.2890625 93.5390625 -201.2890625 93.5390625 -202.625 91.625 C-203.07101562 90.99851562 -203.51703125 90.37203125 -203.9765625 89.7265625 C-205 88 -205 88 -205 86 C-205.66 86 -206.32 86 -207 86 C-207.66 84.35 -208.32 82.7 -209 81 C-209.66 81 -210.32 81 -211 81 C-211 80.34 -211 79.68 -211 79 C-211.66 79 -212.32 79 -213 79 C-214.625 77.625 -214.625 77.625 -216 76 C-216 75.34 -216 74.68 -216 74 C-216.66 74 -217.32 74 -218 74 C-218 73.34 -218 72.68 -218 72 C-218.66 72 -219.32 72 -220 72 C-220 71.34 -220 70.68 -220 70 C-220.99 69.67 -221.98 69.34 -223 69 C-223 68.34 -223 67.68 -223 67 C-223.66 67 -224.32 67 -225 67 C-225 66.34 -225 65.68 -225 65 C-225.70898438 64.76410156 -226.41796875 64.52820313 -227.1484375 64.28515625 C-230.50002342 62.77464698 -232.81452386 60.80675363 -235.625 58.4375 C-254.6840977 43.13535135 -280.56946759 36.34140998 -304.625 36.5625 C-305.66915573 36.56656357 -305.66915573 36.56656357 -306.73440552 36.57070923 C-318.53737071 36.64005011 -329.60226867 37.87095894 -341 41 C-341.71043457 41.18191895 -342.42086914 41.36383789 -343.15283203 41.55126953 C-367.25330337 47.72677386 -391.44933718 58.32641246 -411.4855957 73.14208984 C-415.51772762 76.04799122 -415.51772762 76.04799122 -418.39453125 75.76171875 C-418.92433594 75.51035156 -419.45414062 75.25898438 -420 75 C-414.19580765 68.78122248 -407.71492896 63.58932521 -400.94775391 58.47363281 C-399.67163631 57.508147 -398.40026542 56.53634757 -397.13427734 55.55761719 C-388.03488126 48.55808174 -378.42765759 42.84779207 -368.25 37.5625 C-367.13794189 36.98330811 -366.02588379 36.40411621 -364.88012695 35.80737305 C-355.10003909 30.83597903 -345.06978806 26.58245901 -334.4375 23.8125 C-333.30183594 23.50957031 -332.16617188 23.20664063 -330.99609375 22.89453125 C-320.62679115 20.47127768 -310.5828833 19.60986844 -299.9375 19.625 C-299.25746918 19.62587616 -298.57743835 19.62675232 -297.87680054 19.62765503 C-286.51403108 19.67576356 -275.89963695 20.6508302 -265 24 C-264.1853125 24.24669434 -263.370625 24.49338867 -262.53125 24.74755859 C-224.37224541 36.59226486 -187.37529029 63.43345479 -164 96 C-163.67 96.99 -163.34 97.98 -163 99 C-162.34 99 -161.68 99 -161 99 C-159.7109375 100.4609375 -159.7109375 100.4609375 -158.375 102.375 C-157.92898438 103.00148438 -157.48296875 103.62796875 -157.0234375 104.2734375 C-156 106 -156 106 -156 108 C-155.34 108 -154.68 108 -154 108 C-152.61474609 109.72143555 -152.61474609 109.72143555 -151.0234375 112.13671875 C-150.43844482 113.0186792 -149.85345215 113.90063965 -149.25073242 114.80932617 C-148.63174072 115.75912354 -148.01274902 116.7089209 -147.375 117.6875 C-146.74634033 118.64180908 -146.11768066 119.59611816 -145.4699707 120.5793457 C-133.87125233 138.25749535 -133.87125233 138.25749535 -131 144 C-130.96036133 143.36199463 -130.92072266 142.72398926 -130.87988281 142.06665039 C-130.00972044 128.68129358 -128.7272146 115.90266191 -125 103 C-124.51273437 101.19982422 -124.51273437 101.19982422 -124.015625 99.36328125 C-112.6428745 61.24808481 -84.1730114 34.623797 -50.51953125 15.59765625 C-37.10124992 8.54415261 -22.6985256 3.53964494 -8 0 C-4.71023192 -1.09658936 -3.28696233 -0.79953138 0 0 Z " fill="#285737" transform="translate(460,118)"/>
<path d="M0 0 C0.5976416 0.46059814 1.1952832 0.92119629 1.81103516 1.39575195 C4.52151811 3.55765621 5.94337051 4.70511153 7.0625 8.0625 C8.39103322 8.73868171 9.72548614 9.40324576 11.0625 10.0625 C17.26967027 15.50616849 22.70830477 21.60298112 27.75 28.125 C28.18393066 28.68485596 28.61786133 29.24471191 29.06494141 29.8215332 C32.0625 33.80054458 32.0625 33.80054458 32.0625 36.0625 C31.0725 36.0625 30.0825 36.0625 29.0625 36.0625 C28.44375 35.2375 27.825 34.4125 27.1875 33.5625 C14.09514257 16.99187448 -15.64304778 11.14289396 -35.296875 8.36328125 C-36.16828125 8.26402344 -37.0396875 8.16476563 -37.9375 8.0625 C-38.87078125 7.95292969 -39.8040625 7.84335938 -40.765625 7.73046875 C-51.45347766 6.70279061 -62.21284716 6.96863943 -72.9375 7.0625 C-59.45783037 40.12822426 -59.45783037 40.12822426 -43.22265625 71.90234375 C-41.5450924 74.88637601 -40.08197245 77.82527793 -38.9375 81.0625 C-38.2775 81.0625 -37.6175 81.0625 -36.9375 81.0625 C-35.48002873 83.16101673 -34.13603874 85.25656749 -32.8125 87.4375 C-25.26375554 99.50940345 -16.00849281 110.02292995 -5.9375 120.0625 C-5.22851562 120.81789063 -4.51953125 121.57328125 -3.7890625 122.3515625 C12.9116327 139.87264273 33.51102587 150.09251432 56.0625 158.0625 C56.0625 159.0525 56.0625 160.0425 56.0625 161.0625 C8.42339872 157.60065641 -30.20013222 138.81629986 -62.9375 104.0625 C-66.9375 99.39126712 -66.9375 99.39126712 -66.9375 97.0625 C-67.5975 97.0625 -68.2575 97.0625 -68.9375 97.0625 C-70.89947367 94.68398423 -72.74376154 92.29744814 -74.5625 89.8125 C-75.10447021 89.0803125 -75.64644043 88.348125 -76.20483398 87.59375 C-79.91786813 82.54371456 -83.4669998 77.4061608 -86.8984375 72.16015625 C-89.25974431 68.57296026 -91.68603099 65.03464358 -94.125 61.5 C-97.22586047 57.0056732 -100.31937394 52.50682407 -103.390625 47.9921875 C-103.97046143 47.14084229 -104.55029785 46.28949707 -105.14770508 45.41235352 C-106.27412612 43.75766886 -107.39903668 42.10195463 -108.5222168 40.44506836 C-110.70196507 37.24622582 -112.87247824 34.14246929 -115.31640625 31.13671875 C-116.9375 29.0625 -116.9375 29.0625 -116.9375 27.0625 C-117.5975 27.0625 -118.2575 27.0625 -118.9375 27.0625 C-120.6640625 25.1640625 -120.6640625 25.1640625 -122.5625 22.6875 C-123.19414063 21.87539062 -123.82578125 21.06328125 -124.4765625 20.2265625 C-125.9375 18.0625 -125.9375 18.0625 -125.9375 16.0625 C-126.494375 15.835625 -127.05125 15.60875 -127.625 15.375 C-130.59909588 13.68699964 -132.65758865 11.59573483 -134.9375 9.0625 C-134.9375 8.4025 -134.9375 7.7425 -134.9375 7.0625 C-135.46085937 6.82144531 -135.98421875 6.58039063 -136.5234375 6.33203125 C-139.03782395 5.00974064 -141.38738749 3.50422426 -143.75732422 1.94042969 C-155.03874744 -5.49914559 -165.99596894 -10.16422482 -178.9375 -13.9375 C-178.9375 -14.9275 -178.9375 -15.9175 -178.9375 -16.9375 C-119.43494085 -46.62281222 -52.81857506 -40.93473696 0 0 Z " fill="#285737" transform="translate(246.9375,221.9375)"/>
<path d="M0 0 C4.64226979 0.60590086 8.36046083 2.58715637 12.4375 4.75 C19.771639 8.54328491 27.14919725 11.44848911 35 14 C35 14.99 35 15.98 35 17 C14.85793287 15.53631399 -5.37480449 12.15300599 -24 4 C-24.33 3.34 -24.66 2.68 -25 2 C-19.6599651 3.07305666 -14.5535126 4.42695692 -9.40625 6.203125 C-1.35914874 8.97832442 -1.35914874 8.97832442 7 10 C7.99 10.33 8.98 10.66 10 11 C10 10.34 10 9.68 10 9 C9.34 8.34 8.68 7.68 8 7 C8.33 6.34 8.66 5.68 9 5 C7.6078125 4.5978125 7.6078125 4.5978125 6.1875 4.1875 C3.23759634 3.08851629 1.94384814 2.37581439 0 0 Z " fill="#2F5D40" transform="translate(268,366)"/>
<path d="M0 0 C2.76223278 2.76223278 2.57856291 5.20706617 3 9 C3.99 9 4.98 9 6 9 C6 8.01 6 7.02 6 6 C7.5 4.3125 7.5 4.3125 9 3 C9.66 3.33 10.32 3.66 11 4 C10.566875 5.85625 10.566875 5.85625 10.125 7.75 C8.84975069 13.46129511 7.91894311 19.22238961 7 25 C6.01 25 5.02 25 4 25 C0.94038285 16.91386897 -0.32492129 8.61041418 0 0 Z " fill="#2E5B3D" transform="translate(317,357)"/>
<path d="M0 0 C1.12870406 3.38611217 0.56139518 4.52806153 -0.453125 7.8046875 C-3.64176192 20.60478712 -2.09389104 34.93783367 -1.5625 48 C-1.52334473 48.99169189 -1.48418945 49.98338379 -1.44384766 51.00512695 C-1.26992 54.92183127 -1.06768366 58.64115647 -0.33984375 62.5 C0 65 0 65 -2 68 C-3.32890084 61.54533878 -4.11970677 55.58387257 -4 49 C-4.33 48.34 -4.66 47.68 -5 47 C-5.04097398 44.2960914 -5.02110424 41.62329093 -4.94921875 38.921875 C-4.9303511 38.11768127 -4.91148346 37.31348755 -4.89204407 36.48492432 C-4.85012391 34.78008173 -4.80538271 33.07530655 -4.75805664 31.37060547 C-4.68816094 28.77454839 -4.63362567 26.17847036 -4.58007812 23.58203125 C-4.53740119 21.92445462 -4.49381045 20.26690122 -4.44921875 18.609375 C-4.43453049 17.83728699 -4.41984222 17.06519897 -4.40470886 16.26971436 C-4.21560971 10.26158027 -2.86769829 5.3257254 0 0 Z " fill="#315F42" transform="translate(456,124)"/>
<path d="M0 0 C0.93826619 3.06687009 1.01788333 5.45007796 0.625 8.625 C0.53476562 9.40101563 0.44453125 10.17703125 0.3515625 10.9765625 C0 13 0 13 -1 15 C-1.66 14.67 -2.32 14.34 -3 14 C-3.04898437 14.92941406 -3.09796875 15.85882813 -3.1484375 16.81640625 C-3.89103691 29.09490334 -3.89103691 29.09490334 -6 35 C-5.07380859 34.80083984 -5.07380859 34.80083984 -4.12890625 34.59765625 C1.57627325 33.40799173 7.19930684 32.5613574 13 32 C9.39965559 35.60034441 4.12977067 35.90547481 -0.81640625 36.125 C-3.21450389 36.125 -5.60332685 36.07317213 -8 36 C-7.40508783 29.8809034 -6.49258536 23.9912648 -5.125 18 C-4.94936523 17.21834473 -4.77373047 16.43668945 -4.59277344 15.63134766 C-3.36659515 10.29380024 -1.90395885 5.14068889 0 0 Z " fill="#376245" transform="translate(352,295)"/>
<path d="M0 0 C0.12375 0.639375 0.2475 1.27875 0.375 1.9375 C0.58125 2.618125 0.7875 3.29875 1 4 C1.66 4.33 2.32 4.66 3 5 C0.59319998 6.70331992 -1.82368327 8.38739963 -4.25 10.0625 C-5.27287109 10.79049805 -5.27287109 10.79049805 -6.31640625 11.53320312 C-7.31220703 12.21479492 -7.31220703 12.21479492 -8.328125 12.91015625 C-8.9355957 13.33433838 -9.54306641 13.75852051 -10.16894531 14.19555664 C-12.49497667 15.21745975 -13.65344961 14.8357887 -16 14 C-11.05590198 8.7697484 -5.76575494 4.30143623 0 0 Z " fill="#325B3E" transform="translate(56,179)"/>
<path d="M0 0 C0.66 0.99 1.32 1.98 2 3 C2.66 3 3.32 3 4 3 C3 6 3 6 1.17407227 7.18261719 C0.39604248 7.55032227 -0.3819873 7.91802734 -1.18359375 8.296875 C-2.02857422 8.69777344 -2.87355469 9.09867188 -3.74414062 9.51171875 C-4.63294922 9.92035156 -5.52175781 10.32898438 -6.4375 10.75 C-7.32244141 11.17410156 -8.20738281 11.59820312 -9.11914062 12.03515625 C-14.0169865 14.32554267 -14.0169865 14.32554267 -16 15 C-16.66 14.67 -17.32 14.34 -18 14 C-14.25 11 -14.25 11 -12 11 C-11.67 10.34 -11.34 9.68 -11 9 C-5.77777778 7 -5.77777778 7 -3 7 C-2.67 5.68 -2.34 4.36 -2 3 C-2.99 3 -3.98 3 -5 3 C-5 2.34 -5 1.68 -5 1 C-5.99 1.33 -6.98 1.66 -8 2 C-8 1.34 -8 0.68 -8 0 C-5.06791253 -1.46604374 -3.11702298 -0.77925574 0 0 Z " fill="#2E5A3D" transform="translate(88,162)"/>
<path d="M0 0 C0.66 0 1.32 0 2 0 C1.72368088 4.14700805 1.42639133 8.29224466 1.125 12.4375 C1.00705078 14.21350586 1.00705078 14.21350586 0.88671875 16.02539062 C0.80292969 17.15009766 0.71914063 18.27480469 0.6328125 19.43359375 C0.55949707 20.47572021 0.48618164 21.51784668 0.41064453 22.59155273 C0.27513184 23.38634033 0.13961914 24.18112793 0 25 C-0.66 25.33 -1.32 25.66 -2 26 C-3.65 24.68 -5.3 23.36 -7 22 C-6.34 22 -5.68 22 -5 22 C-5.44472656 21.30132812 -5.88945312 20.60265625 -6.34765625 19.8828125 C-6.91355469 18.97273438 -7.47945313 18.06265625 -8.0625 17.125 C-8.63097656 16.22007812 -9.19945312 15.31515625 -9.78515625 14.3828125 C-10.38650391 13.20332031 -10.38650391 13.20332031 -11 12 C-10.67 11.34 -10.34 10.68 -10 10 C-9.03874097 11.41468311 -8.08111675 12.8318364 -7.125 14.25 C-6.32449219 15.43335938 -6.32449219 15.43335938 -5.5078125 16.640625 C-4 19 -4 19 -2 23 C-1.34 15.41 -0.68 7.82 0 0 Z " fill="#366246" transform="translate(331,239)"/>
<path d="M0 0 C0.66 0 1.32 0 2 0 C0.92048549 6.56598828 -0.45493971 12.93811217 -2.26953125 19.33984375 C-3.32888601 23.19770788 -4.1662427 27.08775419 -5 31 C-7 28 -7 28 -6.50390625 24.93359375 C-6.19324219 23.77988281 -5.88257813 22.62617188 -5.5625 21.4375 C-4.08710653 17.12551072 -4.08710653 17.12551072 -5 13 C-4.01 13 -3.02 13 -2 13 C-1.83318891 10.08347826 -1.83318891 10.08347826 -2 7 C-2.66 6.34 -3.32 5.68 -4 5 C-2.68 4.67 -1.36 4.34 0 4 C0 2.68 0 1.36 0 0 Z " fill="#335C41" transform="translate(333,325)"/>
<path d="M0 0 C0.66 0.33 1.32 0.66 2 1 C1.731875 1.495 1.46375 1.99 1.1875 2.5 C-0.07773228 5.16364691 -1.06614807 7.8888029 -2.078125 10.65625 C-3.13591463 13.34554566 -4.33970153 15.94427269 -5.5625 18.5625 C-7.031675 21.72518511 -8.31384237 24.74824391 -9.1875 28.125 C-9.455625 29.07375 -9.72375 30.0225 -10 31 C-10.66 31.33 -11.32 31.66 -12 32 C-10.62887009 24.74724725 -8.29626676 18.29239368 -5.4375 11.5 C-5.02564453 10.4996875 -4.61378906 9.499375 -4.18945312 8.46875 C-1.15269309 1.15269309 -1.15269309 1.15269309 0 0 Z " fill="#336445" transform="translate(365,262)"/>
<path d="M0 0 C-5.625 3 -5.625 3 -9 3 C-9.309375 3.61875 -9.61875 4.2375 -9.9375 4.875 C-10.625 6.25 -11.3125 7.625 -12 9 C-11.01 8.67 -10.02 8.34 -9 8 C-9 8.66 -9 9.32 -9 10 C-8.34 10.33 -7.68 10.66 -7 11 C-15.57142857 10.14285714 -15.57142857 10.14285714 -19 8 C-17.35318883 4.70637766 -13.84002713 3.80348377 -10.625 2.3125 C-9.93921875 1.97927734 -9.2534375 1.64605469 -8.546875 1.30273438 C-3.36523991 -1.12174664 -3.36523991 -1.12174664 0 0 Z " fill="#2F5E42" transform="translate(86,199)"/>
<path d="M0 0 C0.9590625 0.2784375 0.9590625 0.2784375 1.9375 0.5625 C2.9584375 0.7790625 2.9584375 0.7790625 4 1 C4.33 0.67 4.66 0.34 5 0 C5.99 0.33 6.98 0.66 8 1 C8 1.99 8 2.98 8 4 C8.66 4.33 9.32 4.66 10 5 C9.34 5 8.68 5 8 5 C9.55500981 8.81684226 12.03595495 11.19195732 15 14 C12 14 12 14 9.08203125 11.4453125 C7.98435681 10.34630754 6.89478953 9.23915907 5.8125 8.125 C5.25369141 7.56941406 4.69488281 7.01382812 4.11914062 6.44140625 C0 2.26694139 0 2.26694139 0 0 Z " fill="#305E43" transform="translate(189,329)"/>
<path d="M0 0 C4.48993869 0.58652352 8.22543184 1.7643538 12.375 3.5625 C13.43460937 4.01753906 14.49421875 4.47257812 15.5859375 4.94140625 C16.38257813 5.29074219 17.17921875 5.64007813 18 6 C17.67 6.66 17.34 7.32 17 8 C16.01 7.855625 15.02 7.71125 14 7.5625 C10.00590535 6.99074821 6.00467063 6.49180166 2 6 C3.32 5.34 4.64 4.68 6 4 C4.02 3.01 2.04 2.02 0 1 C0 0.67 0 0.34 0 0 Z " fill="#386949" transform="translate(286,375)"/>
<path d="M0 0 C1.65 0 3.3 0 5 0 C5 0.66 5 1.32 5 2 C5.99 1.67 6.98 1.34 8 1 C8 4 8 4 6.875 5.5625 C4.42754954 7.43887869 1.94265576 8.14989945 -1 9 C-1 6.1568006 -0.58287897 3.76867509 0 1 C0 0.67 0 0.34 0 0 Z " fill="#265335" transform="translate(78,163)"/>
<path d="M0 0 C2.4375 0.75 2.4375 0.75 5 2 C5.625 3.875 5.625 3.875 6 6 C7.52506447 8.46915199 8.41627369 9.75964211 11.125 10.875 C13 12 13 12 13.75 14.9375 C14 18 14 18 14 21 C13.24074219 19.96359375 12.48148438 18.9271875 11.69921875 17.859375 C10.6953241 16.48957483 9.69141721 15.11978363 8.6875 13.75 C8.18798828 13.06808594 7.68847656 12.38617188 7.17382812 11.68359375 C6.68720703 11.01972656 6.20058594 10.35585938 5.69921875 9.671875 C5.2304834 9.03056641 4.76174805 8.38925781 4.27880859 7.72851562 C3.25758078 6.34816188 2.20595773 4.99031256 1.14453125 3.640625 C0 2 0 2 0 0 Z " fill="#356448" transform="translate(130,249)"/>
<path d="M0 0 C0 0.99 0 1.98 0 3 C-0.99 3.33 -1.98 3.66 -3 4 C-3.70299431 5.31454221 -4.36410822 6.65171818 -5 8 C-6.16897337 9.4493154 -7.37939308 10.86599231 -8.625 12.25 C-9.25664062 12.95640625 -9.88828125 13.6628125 -10.5390625 14.390625 C-11.02117187 14.92171875 -11.50328125 15.4528125 -12 16 C-12.66 15.67 -13.32 15.34 -14 15 C-11.47700394 10.33245729 -11.47700394 10.33245729 -8.9375 8.5625 C-6.29422206 6.43082424 -5.85771898 4.21644616 -5 1 C-3.35 0.67 -1.7 0.34 0 0 Z " fill="#335B40" transform="translate(398,200)"/>
<path d="M0 0 C4.09799855 3.65787937 6.8591338 8.04709037 9.8125 12.625 C10.32748047 13.40101563 10.84246094 14.17703125 11.37304688 14.9765625 C11.85451172 15.7190625 12.33597656 16.4615625 12.83203125 17.2265625 C13.27264893 17.90283691 13.7132666 18.57911133 14.16723633 19.27587891 C14.44204834 19.84483887 14.71686035 20.41379883 15 21 C14.67 21.66 14.34 22.32 14 23 C12.5 21.6875 12.5 21.6875 11 20 C11 19.01 11 18.02 11 17 C10.34 17 9.68 17 9 17 C9 16.01 9 15.02 9 14 C8.34 14 7.68 14 7 14 C5.52734375 11.953125 5.52734375 11.953125 3.9375 9.25 C3.41027344 8.36828125 2.88304687 7.4865625 2.33984375 6.578125 C1.17160513 4.3302023 0.46779218 2.47179076 0 0 Z " fill="#335D42" transform="translate(305,226)"/>
<path d="M0 0 C5.9129304 0.64270983 11.34244531 2.19003784 17 4 C17 4.66 17 5.32 17 6 C8 6 8 6 6 5 C6 4.01 6 3.02 6 2 C5.67 2.66 5.34 3.32 5 4 C4.34 4 3.68 4 3 4 C1.375 2 1.375 2 0 0 Z " fill="#2F5B3F" transform="translate(185,192)"/>
<path d="M0 0 C-3.73178618 3.73178618 -9.49409074 4.81969229 -14.66015625 5.19140625 C-16.77439775 5.18805563 -18.88822656 5.10218259 -21 5 C-20.67 4.34 -20.34 3.68 -20 3 C-17.57072204 2.35416757 -15.21538901 1.83000588 -12.75 1.375 C-11.74646484 1.17390625 -11.74646484 1.17390625 -10.72265625 0.96875 C-7.1037362 0.27198347 -3.68477084 -0.15710263 0 0 Z " fill="#375E46" transform="translate(145,139)"/>
<path d="M0 0 C4.72224516 1.53472968 9.35855331 3.23945126 14 5 C14.33 4.34 14.66 3.68 15 3 C15 3.99 15 4.98 15 6 C16.0772721 7.65503095 16.0772721 7.65503095 17.5 9.1875 C18.325 10.115625 19.15 11.04375 20 12 C17.32500685 10.68332049 14.70558937 9.30154238 12.109375 7.8359375 C11.40039062 7.43632812 10.69140625 7.03671875 9.9609375 6.625 C9.23132813 6.2125 8.50171875 5.8 7.75 5.375 C7.00492187 4.95476562 6.25984375 4.53453125 5.4921875 4.1015625 C3.66097237 3.06856935 1.83042056 2.03440045 0 1 C0 0.67 0 0.34 0 0 Z " fill="#326344" transform="translate(251,239)"/>
<path d="M0 0 C7.16332109 2.27129693 12.96652712 4.58705698 18.51953125 9.6953125 C19.98543334 11.09931829 19.98543334 11.09931829 22 12 C21.67 12.66 21.34 13.32 21 14 C20.07058594 13.39671875 19.14117187 12.7934375 18.18359375 12.171875 C16.93495833 11.36448668 15.68625686 10.55720048 14.4375 9.75 C13.82841797 9.35425781 13.21933594 8.95851562 12.59179688 8.55078125 C8.46819062 5.8889825 4.28041899 3.40188247 0 1 C0 0.67 0 0.34 0 0 Z " fill="#396246" transform="translate(87,213)"/>
<path d="M0 0 C5.08431652 1.30063911 7.38418524 3.29378987 11 7 C14.16645474 8.79320824 14.16645474 8.79320824 17 10 C17 10.99 17 11.98 17 13 C13.49367197 11.396395 10.49450479 9.320147 7.375 7.0625 C6.41335937 6.37285156 5.45171875 5.68320312 4.4609375 4.97265625 C2 3 2 3 0 0 Z " fill="#355E42" transform="translate(204,344)"/>
<path d="M0 0 C0 0.33 0 0.66 0 1 C-8.25 1.99 -16.5 2.98 -25 4 C-24.67 3.34 -24.34 2.68 -24 2 C-21.69 2 -19.38 2 -17 2 C-16.67 1.34 -16.34 0.68 -16 0 C-10.62584927 -1.5157861 -5.44359357 -0.69927585 0 0 Z " fill="#336347" transform="translate(149,153)"/>
<path d="M0 0 C4.42323682 0.58265272 7.5155864 2.26766211 11.3125 4.5625 C12.38113281 5.20316406 13.44976562 5.84382813 14.55078125 6.50390625 C15.35902344 6.99761719 16.16726563 7.49132812 17 8 C16.01 8.495 16.01 8.495 15 9 C12.875 8.0625 12.875 8.0625 11 7 C10.67 7.66 10.34 8.32 10 9 C9.34 8.34 8.68 7.68 8 7 C8.33 6.34 8.66 5.68 9 5 C8.071875 4.731875 7.14375 4.46375 6.1875 4.1875 C3.23759634 3.08851629 1.94384814 2.37581439 0 0 Z " fill="#335D42" transform="translate(268,366)"/>
<path d="M0 0 C2.9719385 1.12451727 5.33440687 2.22293791 8 4 C8.33 4.99 8.66 5.98 9 7 C10.66270287 8.33827304 12.32916181 9.67189785 14 11 C14 11.66 14 12.32 14 13 C13.34 13 12.68 13 12 13 C12 12.34 12 11.68 12 11 C11.443125 10.773125 10.88625 10.54625 10.3125 10.3125 C7.33840412 8.62449964 5.27991135 6.53323483 3 4 C3 3.34 3 2.68 3 2 C2.01 1.67 1.02 1.34 0 1 C0 0.67 0 0.34 0 0 Z " fill="#355943" transform="translate(109,227)"/>
<path d="M0 0 C1.32 0.66 2.64 1.32 4 2 C1.74259377 4.33524782 -0.2805761 6.18705073 -3 8 C-4.32 7.67 -5.64 7.34 -7 7 C-4.69 4.69 -2.38 2.38 0 0 Z " fill="#476750" transform="translate(47,186)"/>
<path d="M0 0 C0.66 0.33 1.32 0.66 2 1 C1.360625 1.268125 0.72125 1.53625 0.0625 1.8125 C-2.33131686 2.88667752 -2.33131686 2.88667752 -3 6 C-6.22697129 8.97874273 -9.97952434 10.37634637 -14 12 C-14 11.34 -14 10.68 -14 10 C-11.69833213 8.20916148 -9.39761099 6.52740758 -7 4.875 C-6.33226563 4.40707031 -5.66453125 3.93914062 -4.9765625 3.45703125 C-3.32185734 2.29873764 -1.66144693 1.14860235 0 0 Z " fill="#325D40" transform="translate(72,167)"/>
<path d="M0 0 C-2.78556882 1.36698387 -5.57931328 2.71634538 -8.375 4.0625 C-9.1690625 4.45244141 -9.963125 4.84238281 -10.78125 5.24414062 C-11.54179688 5.60830078 -12.30234375 5.97246094 -13.0859375 6.34765625 C-14.1385376 6.85824585 -14.1385376 6.85824585 -15.21240234 7.37915039 C-15.80230957 7.58403076 -16.3922168 7.78891113 -17 8 C-17.66 7.67 -18.32 7.34 -19 7 C-15.25 4 -15.25 4 -13 4 C-12.67 3.34 -12.34 2.68 -12 2 C-10.01751285 1.28293018 -8.01584651 0.61709587 -6 0 C-3.50907189 -1.24546405 -2.58919267 -0.7767578 0 0 Z " fill="#366145" transform="translate(89,169)"/>
<path d="M0 0 C5.03163018 4.29785078 10.02718443 8.63425542 15 13 C14.67 13.66 14.34 14.32 14 15 C10.14803796 13.4867292 8.49783897 11.2324975 6 8 C4.92835334 6.92571382 3.84458524 5.86340461 2.75 4.8125 C0 2 0 2 0 0 Z " fill="#345E40" transform="translate(240,342)"/>
<path d="M0 0 C0 0.66 0 1.32 0 2 C-1.91197039 2.70045456 -3.82980435 3.384919 -5.75 4.0625 C-6.81734375 4.44535156 -7.8846875 4.82820313 -8.984375 5.22265625 C-11.92280042 5.98010011 -13.22348948 6.07151741 -16 5 C-15.34 3.68 -14.68 2.36 -14 1 C-13.505 1.391875 -13.01 1.78375 -12.5 2.1875 C-9.01295347 3.32079012 -7.0753761 2.14591793 -3.8046875 0.7265625 C-2 0 -2 0 0 0 Z " fill="#346044" transform="translate(382,321)"/>
<path d="M0 0 C0.66 0.33 1.32 0.66 2 1 C2 2.32 2 3.64 2 5 C2.99 5.33 3.98 5.66 5 6 C5 6.66 5 7.32 5 8 C5.66 8 6.32 8 7 8 C7.33 8.99 7.66 9.98 8 11 C7.34 11.66 6.68 12.32 6 13 C4.80008401 11.4050992 3.61538682 9.79873853 2.4375 8.1875 C1.44556641 6.84751953 1.44556641 6.84751953 0.43359375 5.48046875 C-0.03949219 4.66191406 -0.51257813 3.84335937 -1 3 C-0.67 2.01 -0.34 1.02 0 0 Z " fill="#325C40" transform="translate(157,285)"/>
<path d="M0 0 C2.875 1.0625 2.875 1.0625 6 3 C7.1875 6.5625 7.1875 6.5625 8 10 C8.99 10.66 9.98 11.32 11 12 C11 12.66 11 13.32 11 14 C10.01 14 9.02 14 8 14 C5.95703125 11.4453125 5.95703125 11.4453125 3.8125 8.125 C3.09707031 7.03445313 2.38164062 5.94390625 1.64453125 4.8203125 C0 2 0 2 0 0 Z " fill="#355E45" transform="translate(145,270)"/>
<path d="M0 0 C1.35306884 4.05920652 -0.15400398 6.41865449 -1.8125 10.125 C-2.08642578 10.77082031 -2.36035156 11.41664063 -2.64257812 12.08203125 C-4.73415493 16.86707746 -4.73415493 16.86707746 -7 18 C-7.50710303 13.19157661 -5.83930651 10.32305971 -3.5 6.1875 C-3.16613281 5.59001953 -2.83226562 4.99253906 -2.48828125 4.37695312 C-1.66827367 2.91265388 -0.83540688 1.45556863 0 0 Z " fill="#336145" transform="translate(355,263)"/>
<path d="M0 0 C0 0.99 0 1.98 0 3 C-2.45334555 4.36396462 -4.91191234 5.71634169 -7.375 7.0625 C-8.42300781 7.64741211 -8.42300781 7.64741211 -9.4921875 8.24414062 C-11.29610184 9.22415178 -13.14583482 10.11875071 -15 11 C-15.66 10.67 -16.32 10.34 -17 10 C-15.54462432 9.16151196 -14.08559627 8.32936066 -12.625 7.5 C-11.40683594 6.80390625 -11.40683594 6.80390625 -10.1640625 6.09375 C-8 5 -8 5 -6 5 C-5.67 4.01 -5.34 3.02 -5 2 C-2.4375 0.8125 -2.4375 0.8125 0 0 Z " fill="#356143" transform="translate(408,307)"/>
<path d="M0 0 C3.44216672 2.6598561 3.99504674 5.90288286 5 10 C4.01 10.495 4.01 10.495 3 11 C0.10551918 8.60890715 -0.62813667 6.71863329 -1 3 C-0.67 2.01 -0.34 1.02 0 0 Z " fill="#30593F" transform="translate(178,243)"/>
<path d="M0 0 C0.33 0.66 0.66 1.32 1 2 C0.525625 2.9075 0.05125 3.815 -0.4375 4.75 C-2.23018767 7.87777486 -2.23018767 7.87777486 -2 11.1875 C-2 14 -2 14 -3.5 15.875 C-4.2425 16.431875 -4.2425 16.431875 -5 17 C-6.08754852 13.65035056 -6.08735791 12.22387221 -4.78515625 8.88671875 C-4.21667969 7.83097656 -3.64820313 6.77523437 -3.0625 5.6875 C-2.49660156 4.61886719 -1.93070312 3.55023438 -1.34765625 2.44921875 C-0.90292969 1.64097656 -0.45820313 0.83273438 0 0 Z " fill="#335F41" transform="translate(345,197)"/>
<path d="M0 0 C-1.32 0.33 -2.64 0.66 -4 1 C-4 1.66 -4 2.32 -4 3 C-7.6678852 4.96189209 -10.87248551 6.39301257 -15 7 C-11.30105241 2.68456114 -5.76210785 -1.92070262 0 0 Z " fill="#355E43" transform="translate(416,133)"/>
<path d="M0 0 C0.33 0.66 0.66 1.32 1 2 C-0.3984375 4.49609375 -0.3984375 4.49609375 -2.375 7.4375 C-5.10511285 11.51185878 -5.10511285 11.51185878 -7 16 C-7.66 16 -8.32 16 -9 16 C-7.51637716 9.73581469 -3.75837844 5.08486495 0 0 Z " fill="#386044" transform="translate(355,180)"/>
<path d="M0 0 C1.15242187 0.00902344 2.30484375 0.01804688 3.4921875 0.02734375 C4.36101562 0.03894531 5.22984375 0.05054688 6.125 0.0625 C2.64952927 2.00816951 0.99993656 2.13887127 -2.875 1.0625 C-3.205 1.7225 -3.535 2.3825 -3.875 3.0625 C-6.845 3.0625 -9.815 3.0625 -12.875 3.0625 C-12.875 2.4025 -12.875 1.7425 -12.875 1.0625 C-8.52167264 0.22226812 -4.43057481 -0.04520995 0 0 Z " fill="#376148" transform="translate(127.875,186.9375)"/>
<path d="M0 0 C0.66 0.33 1.32 0.66 2 1 C-2.03523352 5.81123996 -6.04467233 10.13242719 -11 14 C-11 11 -11 11 -8.59375 8.30078125 C-7.5700032 7.29697757 -6.5383946 6.30114351 -5.5 5.3125 C-4.97535156 4.80138672 -4.45070313 4.29027344 -3.91015625 3.76367188 C-2.61339096 2.50227292 -1.30753883 1.25022788 0 0 Z " fill="#376144" transform="translate(376,156)"/>
<path d="M0 0 C3.93677426 1.31225809 4.8271782 3.1961394 7.1875 6.5625 C7.90292969 7.57441406 8.61835938 8.58632813 9.35546875 9.62890625 C9.89816406 10.41136719 10.44085938 11.19382812 11 12 C10.67 12.66 10.34 13.32 10 14 C9.51789063 13.44570313 9.03578125 12.89140625 8.5390625 12.3203125 C7.90742188 11.59585937 7.27578125 10.87140625 6.625 10.125 C5.99851563 9.40570313 5.37203125 8.68640625 4.7265625 7.9453125 C3.52573166 6.5923402 2.2791655 5.2791655 1 4 C0.375 1.875 0.375 1.875 0 0 Z " fill="#325D3E" transform="translate(212,310)"/>
<path d="M0 0 C0.66 0 1.32 0 2 0 C3.2890625 1.4609375 3.2890625 1.4609375 4.625 3.375 C5.29402344 4.31472656 5.29402344 4.31472656 5.9765625 5.2734375 C7 7 7 7 7 9 C6.01 9 5.02 9 4 9 C0.8217901 5.7309841 0 4.67834007 0 0 Z " fill="#3A6E53" transform="translate(272,249)"/>
<path d="M0 0 C2 1 2 1 3 3 C1.02 3.66 -0.96 4.32 -3 5 C-3.33 4.34 -3.66 3.68 -4 3 C-3.01 2.67 -2.02 2.34 -1 2 C-0.67 1.34 -0.34 0.68 0 0 Z M-3 5 C-3 5.99 -3 6.98 -3 8 C-4.98 8 -6.96 8 -9 8 C-7.60722783 5.21445565 -6.01148006 5 -3 5 Z " fill="#235335" transform="translate(70,170)"/>
<path d="M0 0 C-2.97 2.64 -5.94 5.28 -9 8 C-9.33 7.34 -9.66 6.68 -10 6 C-9 5 -8 4 -7 3 C-7.66 2.34 -8.32 1.68 -9 1 C-2.25 -1.125 -2.25 -1.125 0 0 Z " fill="#305D3E" transform="translate(422,298)"/>
<path d="M0 0 C2.74554724 2.37115444 3.95117186 4.53079925 5 8 C5.125 11.3125 5.125 11.3125 5 14 C3 13 3 13 2.1484375 10.8203125 C1.89320313 9.93085938 1.63796875 9.04140625 1.375 8.125 C1.11460937 7.24070312 0.85421875 6.35640625 0.5859375 5.4453125 C0 3 0 3 0 0 Z " fill="#376144" transform="translate(298,287)"/>
<path d="M0 0 C4.10839064 1.45002023 7.50344613 3.3979134 11 6 C11 6.66 11 7.32 11 8 C10.34 8 9.68 8 9 8 C9 7.34 9 6.68 9 6 C6.69 5.67 4.38 5.34 2 5 C1.34 3.35 0.68 1.7 0 0 Z " fill="#335C3F" transform="translate(228,210)"/>
<path d="M0 0 C5.12583611 -0.10251672 9.94997778 -0.03590199 15 1 C15 1.66 15 2.32 15 3 C11.78043217 4.07318928 11.09578311 3.870689 8 3 C7.01 3 6.02 3 5 3 C5 2.34 5 1.68 5 1 C3.35 1 1.7 1 0 1 C0 0.67 0 0.34 0 0 Z " fill="#366149" transform="translate(158,187)"/>
<path d="M0 0 C0.33 0.66 0.66 1.32 1 2 C1.99 1.67 2.98 1.34 4 1 C4.99 1.33 5.98 1.66 7 2 C7 2.66 7 3.32 7 4 C8.9600281 5.63676257 8.9600281 5.63676257 11 7 C6.00088076 6.52389341 3.02167317 4.96837781 -1 2 C-0.67 1.34 -0.34 0.68 0 0 Z " fill="#335D43" transform="translate(228,359)"/>
<path d="M0 0 C0.66 0.33 1.32 0.66 2 1 C1.731875 1.495 1.46375 1.99 1.1875 2.5 C-0.43875493 5.9236946 -1.69515171 9.44132285 -3 13 C-3.66 12.01 -4.32 11.02 -5 10 C-3.35 6.7 -1.7 3.4 0 0 Z " fill="#305E3D" transform="translate(365,262)"/>
<path d="M0 0 C3.95820859 0.56545837 6.6659053 1.80902348 10 4 C9.67 4.66 9.34 5.32 9 6 C4.58763974 6 3.21615077 3.9302707 0 1 C0 0.67 0 0.34 0 0 Z " fill="#335B40" transform="translate(212,149)"/>
<path d="M0 0 C0.66 0.33 1.32 0.66 2 1 C0.68 3.97 -0.64 6.94 -2 10 C-2.66 10 -3.32 10 -4 10 C-4.75 8.25 -4.75 8.25 -5 6 C-3.125 3.875 -3.125 3.875 -1 2 C-0.67 1.34 -0.34 0.68 0 0 Z " fill="#2E5B3E" transform="translate(447,255)"/>
<path d="M0 0 C1.9375 0.625 1.9375 0.625 4 2 C4.79148599 5.0999868 5 7.80525245 5 11 C4.15504811 9.92570402 3.32445142 8.84010798 2.5 7.75 C2.0359375 7.14671875 1.571875 6.5434375 1.09375 5.921875 C0 4 0 4 0 0 Z " fill="#305C43" transform="translate(139,259)"/>
<path d="M0 0 C2 2 4 4 6 6 C4.3733152 5.71788123 2.74867104 5.42397625 1.125 5.125 C0.22007812 4.96257812 -0.68484375 4.80015625 -1.6171875 4.6328125 C-4 4 -4 4 -6 2 C-4.02 2 -2.04 2 0 2 C0 1.34 0 0.68 0 0 Z " fill="#345B41" transform="translate(241,232)"/>
<path d="M0 0 C-0.66 1.32 -1.32 2.64 -2 4 C-2.33 3.01 -2.66 2.02 -3 1 C-5.31 1.33 -7.62 1.66 -10 2 C-6.64608848 -1.35391152 -4.35183427 -1.05855428 0 0 Z " fill="#315D43" transform="translate(460,118)"/>
<path d="M0 0 C0.66 0.66 1.32 1.32 2 2 C0.02 4.97 -1.96 7.94 -4 11 C-4.66 10.34 -5.32 9.68 -6 9 C-5.566875 8.443125 -5.13375 7.88625 -4.6875 7.3125 C-2.96495233 4.95197171 -1.47166848 2.52286025 0 0 Z " fill="#335E44" transform="translate(375,226)"/>
<path d="M0 0 C0.99 0.33 1.98 0.66 3 1 C4.299375 1.2165625 4.299375 1.2165625 5.625 1.4375 C6.40875 1.623125 7.1925 1.80875 8 2 C8.33 2.66 8.66 3.32 9 4 C9.66 4.33 10.32 4.66 11 5 C2.42857143 4.14285714 2.42857143 4.14285714 -1 2 C-0.67 1.34 -0.34 0.68 0 0 Z " fill="#3A604A" transform="translate(68,205)"/>
<path d="M0 0 C0.33 0.66 0.66 1.32 1 2 C1.99 2.33 2.98 2.66 4 3 C4 4.65 4 6.3 4 8 C3.01 8 2.02 8 1 8 C0.67 5.36 0.34 2.72 0 0 Z " fill="#476F53" transform="translate(320,374)"/>
<path d="M0 0 C0.66 0.33 1.32 0.66 2 1 C1.71872579 2.48117801 1.42466268 3.95993249 1.125 5.4375 C0.96257812 6.26121094 0.80015625 7.08492188 0.6328125 7.93359375 C0.42398437 8.61550781 0.21515625 9.29742187 0 10 C-0.99 10.495 -0.99 10.495 -2 11 C-2.59732819 8.23735711 -3 5.83967231 -3 3 C-1.5 1.3125 -1.5 1.3125 0 0 Z " fill="#2F6243" transform="translate(326,360)"/>
<path d="M0 0 C0.66 1.98 1.32 3.96 2 6 C1.401875 5.484375 0.80375 4.96875 0.1875 4.4375 C-0.534375 3.963125 -1.25625 3.48875 -2 3 C-2.99 3.33 -3.98 3.66 -5 4 C-5.66 3.34 -6.32 2.68 -7 2 C-4 0 -4 0 0 0 Z " fill="#2E5B3D" transform="translate(207,299)"/>
<path d="M0 0 C2.97 0.495 2.97 0.495 6 1 C3.63707344 3.52588702 2.33537489 4.88820837 -1 6 C-0.67 4.02 -0.34 2.04 0 0 Z " fill="#265435" transform="translate(57,178)"/>
<path d="M0 0 C-2.94017338 1.52453435 -5.85472185 2.95157395 -9 4 C-9.99 3.67 -10.98 3.34 -12 3 C-11 1 -11 1 -9.2578125 0.33203125 C-8.55398438 0.16058594 -7.85015625 -0.01085937 -7.125 -0.1875 C-6.42632812 -0.36667969 -5.72765625 -0.54585938 -5.0078125 -0.73046875 C-3 -1 -3 -1 0 0 Z " fill="#315A41" transform="translate(449,121)"/>
<path d="M0 0 C1.1171875 1.734375 1.1171875 1.734375 2 4 C1.3203125 6.140625 1.3203125 6.140625 0.125 8.25 C-0.26429688 8.95640625 -0.65359375 9.6628125 -1.0546875 10.390625 C-1.36664063 10.92171875 -1.67859375 11.4528125 -2 12 C-3.12377697 8.69564916 -2.89554742 6.9493138 -1.5625 3.75 C-1.27503906 3.04359375 -0.98757813 2.3371875 -0.69140625 1.609375 C-0.46324219 1.07828125 -0.23507812 0.5471875 0 0 Z " fill="#316143" transform="translate(338,213)"/>
<path d="M0 0 C0.33 0.66 0.66 1.32 1 2 C0.22265625 3.7265625 0.22265625 3.7265625 -0.9375 5.625 C-1.618125 6.73875 -2.29875 7.8525 -3 9 C-3.66 8.01 -4.32 7.02 -5 6 C-4.67 5.01 -4.34 4.02 -4 3 C-3.01 3 -2.02 3 -1 3 C-0.67 2.01 -0.34 1.02 0 0 Z " fill="#2D5F44" transform="translate(369,237)"/>
<path d="M0 0 C0.66 0 1.32 0 2 0 C0.8141763 3.37503669 -0.27573689 5.64722731 -3 8 C-3.66 7.67 -4.32 7.34 -5 7 C-4.54625 6.401875 -4.0925 5.80375 -3.625 5.1875 C-2.36704087 3.49409348 -1.17015276 1.75522914 0 0 Z " fill="#335C40" transform="translate(432,283)"/>
<path d="M0 0 C0.99 0.495 0.99 0.495 2 1 C2.73075648 3.3140622 3.40138258 5.64828869 4 8 C3.34 8.66 2.68 9.32 2 10 C0 3.375 0 3.375 0 0 Z " fill="#385F46" transform="translate(314,346)"/>
<path d="M0 0 C0.66 0.66 1.32 1.32 2 2 C-0.36292656 4.52588702 -1.66462511 5.88820837 -5 7 C-3.70700306 4.11562221 -2.34058637 2.12780579 0 0 Z " fill="#365D44" transform="translate(363,170)"/>
<path d="M0 0 C-1.25535985 3.76607955 -2.52883585 4.26441793 -6 6 C-6.99 6 -7.98 6 -9 6 C-7.8803014 4.99406757 -6.7540588 3.9954151 -5.625 3 C-4.68527344 2.1646875 -4.68527344 2.1646875 -3.7265625 1.3125 C-2 0 -2 0 0 0 Z " fill="#375D46" transform="translate(387,149)"/>
</svg>
